<?xml version="1.0" standalone="no"?>
<!DOCTYPE svg PUBLIC "-//W3C//DTD SVG 20010904//EN"
 "http://www.w3.org/TR/2001/REC-SVG-20010904/DTD/svg10.dtd">
<svg version="1.0" xmlns="http://www.w3.org/2000/svg"
 width="1024.000000pt" height="1024.000000pt" viewBox="0 0 1024.000000 1024.000000"
 preserveAspectRatio="xMidYMid meet">
<metadata>
Created by potrace 1.11, written by Peter Selinger 2001-2013
</metadata>
<g transform="translate(0.000000,1024.000000) scale(0.100000,-0.100000)"
fill="#000000" stroke="none">
<path d="M3170 6170 l0 -640 -640 0 -640 0 0 -710 0 -710 328 -2 327 -3 3
-327 2 -328 705 0 705 0 0 710 0 710 -325 0 -325 0 0 260 0 260 645 0 645 0 0
710 0 710 -715 0 -715 0 0 -640z m1288 -67 l2 -573 -575 0 -575 0 0 568 c0
313 3 572 7 575 3 4 261 6 572 5 l566 -3 3 -572z m-1288 -973 l0 -260 -310 0
-310 0 -2 -312 -3 -313 -257 -3 -258 -2 0 575 0 575 570 0 570 0 0 -260z m0
-640 l0 -250 -242 2 -243 3 -3 248 -2 247 245 0 245 0 0 -250z m660 -325 l0
-575 -575 0 -575 0 2 258 3 257 313 3 312 2 0 315 0 315 260 0 260 0 0 -575z"/>
<path d="M4190 4921 l0 -38 51 -5 c38 -4 58 -12 77 -32 l27 -26 3 -695 2 -695
75 0 75 0 2 645 3 645 374 -645 374 -645 113 0 114 0 0 765 0 765 -75 0 -75 0
-2 -616 -3 -616 -355 614 -355 613 -213 3 -212 2 0 -39z"/>
<path d="M6070 4920 c0 -37 2 -40 28 -40 75 -1 102 -36 82 -111 -7 -24 -116
-327 -242 -674 -127 -346 -233 -638 -236 -648 -4 -16 2 -18 68 -15 l72 3 83
230 83 230 290 3 290 2 16 -42 c9 -24 47 -128 85 -233 l68 -190 122 -3 121 -3
-28 78 c-16 43 -141 387 -278 766 l-249 687 -187 0 -188 0 0 -40z m359 -600
l119 -305 -246 -3 c-135 -1 -246 -1 -248 1 -3 3 205 578 227 627 14 31 -2 66
148 -320z"/>
<path d="M6940 4921 c0 -38 1 -39 43 -45 58 -10 83 -28 111 -84 13 -26 128
-335 254 -687 127 -352 234 -648 237 -657 6 -16 21 -18 109 -18 l102 0 276
763 276 762 -70 3 c-39 2 -74 -1 -78 -5 -4 -4 -103 -284 -221 -621 -117 -337
-216 -609 -219 -605 -4 5 -105 284 -226 621 l-218 612 -188 0 -188 0 0 -39z"/>
</g>
</svg>
